<?xml version="1.0" encoding="UTF-8"?>
<svg id="Layer_1" data-name="Layer 1" xmlns="http://www.w3.org/2000/svg" viewBox="0 0 888.51 888.51">
  <defs>
    <style>
      .cls-1 {
        fill: #1046a9;
      }
    </style>
  </defs>
  <circle cx="444.26" cy="447.13" r="439.33"/>
  <g>
    <polygon class="cls-1" points="597.8 231.7 501.79 363.85 541.84 392.95 526.54 440.03 681.89 490.51 734.14 334.32 597.8 231.7"/>
    <polygon class="cls-1" points="290.73 230.58 154.37 330.55 206.34 490.51 361.69 440.03 346.4 392.95 386.44 363.85 290.73 230.58"/>
    <path class="cls-1" d="M383.66,507.65l-15.16-46.66c-.04-.14-.19-.21-.33-.17l-154.86,50.32c-.14.04-.21.19-.17.33,0,0,50.54,155.74,51.84,159.55.04.11.13.16.24.16h167.74c.14,0,.26-.12.26-.26v-162.82c0-.14-.12-.26-.26-.26h-49.06c-.11,0-.21-.07-.25-.18Z"/>
    <polygon class="cls-1" points="504.51 507.83 504.51 507.83 504.51 507.83 455.01 507.83 455.01 671.17 623.19 671.17 675.16 511.22 519.81 460.74 504.51 507.83"/>
    <polygon class="cls-1" points="580.18 218.89 580.18 218.89 443.62 118.71 308.74 217.38 404.07 351.05 444.12 321.95 484.17 351.05 580.18 218.89"/>
    <polygon class="cls-1" points="296.4 774.35 310.54 695.81 284.74 695.81 270.43 774.35 296.4 774.35"/>
    <polygon class="cls-1" points="363.95 751.18 342.63 751.18 342.63 695.81 317.45 695.81 317.45 773.46 363.95 773.46 363.95 751.18"/>
    <rect class="cls-1" x="367.8" y="719.83" width="65.69" height="26.51"/>
    <path class="cls-1" d="M440.59,697.69v74.97h81.01v-74.97h-81.01ZM499.75,751.89h-37.31v-34.52h37.31v34.52Z"/>
    <rect class="cls-1" x="555.1" y="711.91" width="19.97" height="31.32"/>
    <polygon class="cls-1" points="586.84 775.55 612.32 723.75 586.73 723.75 561.29 775.55 586.84 775.55"/>
    <rect class="cls-1" x="529.45" y="711.91" width="19.86" height="31.32"/>
    <polygon class="cls-1" points="610.73 741.29 638.02 741.29 649.27 717.97 671.98 717.97 646.68 774.95 674.55 774.95 708.3 697.29 631.93 697.29 610.73 741.29 610.73 741.29"/>
    <rect class="cls-1" x="263.51" y="684.75" width="12.21" height="20.35"/>
    <rect class="cls-1" x="246.56" y="684.75" width="12.21" height="20.35"/>
    <polygon class="cls-1" points="234.8 718.87 234.8 718.87 203 774.65 232.01 774.65 268.48 709.58 242.46 709.58 242.46 696.2 180.62 696.2 180.62 718.87 234.8 718.87 234.8 718.87"/>
  </g>
</svg>